<svg xmlns="http://www.w3.org/2000/svg" viewBox="0 0 280 50" fill="none">
  <!-- Icon -->
  <g fill="#fff">
    <!-- Outer frame -->
    <path d="M5 8C5 5.79086 6.79086 4 9 4H35C37.2091 4 39 5.79086 39 8V36C39 38.2091 37.2091 40 35 40H25L21 46L17 40H9C6.79086 40 5 38.2091 5 36V8Z" stroke="#fff" stroke-width="3" fill="none"/>
    <!-- W shape inside -->
    <path d="M12 14L16 30L22 18L28 30L32 14" stroke="#fff" stroke-width="2.5" stroke-linecap="round" stroke-linejoin="round" fill="none"/>
  </g>

  <!-- WebCuts Text -->
  <g fill="#fff">
    <!-- W -->
    <path d="M56 14H62L67 32L73 18L79 32L84 14H90L81 38H75L69.5 24L64 38H58L49 14H56Z"/>
    <!-- e -->
    <path d="M95 28C95 23 99 19 105 19C111 19 114.5 23 114.5 28V30H101C101.5 33 103.5 35 107 35C109.5 35 111.5 34 112.5 32L117 34.5C115 37.5 111.5 40 106 40C99 40 95 35 95 28ZM101 26H109C108.5 23.5 107 22 105 22C102.5 22 101.3 24 101 26Z"/>
    <!-- b -->
    <path d="M120 10H126V22C128 20 130.5 19 133.5 19C139.5 19 144 24 144 29.5C144 35 139.5 40 133.5 40C130.5 40 128 39 126 37V39H120V10ZM132 35C136 35 138.5 32.5 138.5 29.5C138.5 26.5 136 24 132 24C128 24 125.5 26.5 125.5 29.5C125.5 32.5 128 35 132 35Z"/>
    <!-- C -->
    <path d="M156 14C166 14 172 20 172 27C172 34 166 40 156 40C148 40 143 35 143 27C143 20 149 14 156 14ZM156 35C162 35 166 32 166 27C166 22 162 19 156 19C151 19 148 22 148 27C148 32 151 35 156 35Z" transform="translate(-3,0)"/>
    <!-- u -->
    <path d="M172 19H178V32C178 34 179.5 35 182 35C185 35 187.5 33 187.5 29V19H193.5V39H187.5V37C185.5 39 183 40 180 40C175 40 172 37 172 32V19Z"/>
    <!-- t -->
    <path d="M200 10H206V19H212V24H206V32C206 34 207 35 209 35H212V39H208C203 39 200 37 200 32V24H196V19H200V10Z"/>
    <!-- s -->
    <path d="M217 34L220 30C222 32.5 225 34 228 34C231 34 232.5 33 232.5 31.5C232.5 30 231 29 227.5 28C222.5 26.5 219.5 24.5 219.5 21C219.5 17 223 14 228.5 14C233 14 236.5 16 238.5 18.5L235 22C233.5 20 231 18.5 228.5 18.5C226 18.5 225 19.5 225 20.5C225 22 226.5 23 230 24C235 25.5 238 27.5 238 31.5C238 36 234 40 228 40C223 40 219 37.5 217 34Z" transform="translate(2,5)"/>
  </g>
</svg>
